<mxfile host="app.diagrams.net" modified="2020-05-24T13:10:01.282Z" agent="5.0 (Macintosh)" etag="XUzGxNB4ICUCALvd-8tI" version="13.0.1" type="github">
  <diagram id="B3x_D5TUnkk6CBDTKQs9" name="Page-1">
    <mxGraphModel dx="1422" dy="1081" grid="1" gridSize="10" guides="1" tooltips="1" connect="1" arrows="1" fold="1" page="1" pageScale="1" pageWidth="850" pageHeight="1100" math="0" shadow="0">
      <root>
        <mxCell id="0" />
        <mxCell id="1" parent="0" />
        <mxCell id="p5L9RwOuj42B9GvSqFFH-1" value="" style="shape=image;html=1;verticalAlign=top;verticalLabelPosition=bottom;labelBackgroundColor=#ffffff;imageAspect=0;aspect=fixed;image=https://cdn4.iconfinder.com/data/icons/feather/24/mic-128.png" parent="1" vertex="1">
          <mxGeometry x="70" y="229" width="110" height="110" as="geometry" />
        </mxCell>
        <mxCell id="p5L9RwOuj42B9GvSqFFH-3" value="" style="shape=image;html=1;verticalAlign=top;verticalLabelPosition=bottom;labelBackgroundColor=#ffffff;imageAspect=0;aspect=fixed;image=https://cdn4.iconfinder.com/data/icons/hodgepodge-free/32/audio_spectrum_line_sound-128.png" parent="1" vertex="1">
          <mxGeometry x="250" y="220" width="128" height="128" as="geometry" />
        </mxCell>
        <mxCell id="p5L9RwOuj42B9GvSqFFH-4" value="" style="ellipse;whiteSpace=wrap;html=1;aspect=fixed;strokeWidth=3;" parent="1" vertex="1">
          <mxGeometry x="730" y="249" width="30" height="30" as="geometry" />
        </mxCell>
        <mxCell id="p5L9RwOuj42B9GvSqFFH-5" value="" style="ellipse;whiteSpace=wrap;html=1;aspect=fixed;strokeWidth=3;" parent="1" vertex="1">
          <mxGeometry x="760" y="289" width="30" height="30" as="geometry" />
        </mxCell>
        <mxCell id="p5L9RwOuj42B9GvSqFFH-6" value="" style="ellipse;whiteSpace=wrap;html=1;aspect=fixed;strokeWidth=3;" parent="1" vertex="1">
          <mxGeometry x="700" y="289" width="30" height="30" as="geometry" />
        </mxCell>
        <mxCell id="p5L9RwOuj42B9GvSqFFH-8" value="" style="endArrow=none;html=1;entryX=0;entryY=1;entryDx=0;entryDy=0;exitX=0.713;exitY=0.056;exitDx=0;exitDy=0;exitPerimeter=0;strokeWidth=1;" parent="1" source="p5L9RwOuj42B9GvSqFFH-6" target="p5L9RwOuj42B9GvSqFFH-4" edge="1">
          <mxGeometry width="50" height="50" relative="1" as="geometry">
            <mxPoint x="720" y="289" as="sourcePoint" />
            <mxPoint x="770" y="239" as="targetPoint" />
          </mxGeometry>
        </mxCell>
        <mxCell id="p5L9RwOuj42B9GvSqFFH-9" value="" style="endArrow=none;html=1;entryX=0.796;entryY=0.907;entryDx=0;entryDy=0;entryPerimeter=0;strokeWidth=1;" parent="1" source="p5L9RwOuj42B9GvSqFFH-5" target="p5L9RwOuj42B9GvSqFFH-4" edge="1">
          <mxGeometry width="50" height="50" relative="1" as="geometry">
            <mxPoint x="731.39" y="300.67999999999995" as="sourcePoint" />
            <mxPoint x="744.3933982822017" y="284.6066017177982" as="targetPoint" />
          </mxGeometry>
        </mxCell>
        <mxCell id="p5L9RwOuj42B9GvSqFFH-10" value="" style="endArrow=none;html=1;entryX=0;entryY=0.5;entryDx=0;entryDy=0;exitX=1;exitY=0.5;exitDx=0;exitDy=0;strokeWidth=1;" parent="1" source="p5L9RwOuj42B9GvSqFFH-6" target="p5L9RwOuj42B9GvSqFFH-5" edge="1">
          <mxGeometry width="50" height="50" relative="1" as="geometry">
            <mxPoint x="741.39" y="310.67999999999995" as="sourcePoint" />
            <mxPoint x="754.3933982822017" y="294.6066017177982" as="targetPoint" />
          </mxGeometry>
        </mxCell>
        <mxCell id="p5L9RwOuj42B9GvSqFFH-11" value="" style="ellipse;whiteSpace=wrap;html=1;strokeWidth=3;" parent="1" vertex="1">
          <mxGeometry x="530" y="209" width="30" height="30" as="geometry" />
        </mxCell>
        <mxCell id="p5L9RwOuj42B9GvSqFFH-12" value="" style="ellipse;whiteSpace=wrap;html=1;strokeWidth=3;" parent="1" vertex="1">
          <mxGeometry x="530" y="249" width="30" height="30" as="geometry" />
        </mxCell>
        <mxCell id="p5L9RwOuj42B9GvSqFFH-13" value="" style="ellipse;whiteSpace=wrap;html=1;strokeWidth=3;" parent="1" vertex="1">
          <mxGeometry x="530" y="289" width="30" height="30" as="geometry" />
        </mxCell>
        <mxCell id="p5L9RwOuj42B9GvSqFFH-14" value="" style="ellipse;whiteSpace=wrap;html=1;strokeWidth=3;" parent="1" vertex="1">
          <mxGeometry x="530" y="329" width="30" height="30" as="geometry" />
        </mxCell>
        <mxCell id="p5L9RwOuj42B9GvSqFFH-15" value="" style="ellipse;whiteSpace=wrap;html=1;strokeWidth=3;" parent="1" vertex="1">
          <mxGeometry x="470" y="229" width="30" height="30" as="geometry" />
        </mxCell>
        <mxCell id="p5L9RwOuj42B9GvSqFFH-16" value="" style="ellipse;whiteSpace=wrap;html=1;strokeWidth=3;" parent="1" vertex="1">
          <mxGeometry x="470" y="269" width="30" height="30" as="geometry" />
        </mxCell>
        <mxCell id="p5L9RwOuj42B9GvSqFFH-17" value="" style="ellipse;whiteSpace=wrap;html=1;strokeWidth=3;" parent="1" vertex="1">
          <mxGeometry x="470" y="309" width="30" height="30" as="geometry" />
        </mxCell>
        <mxCell id="p5L9RwOuj42B9GvSqFFH-18" value="" style="ellipse;whiteSpace=wrap;html=1;strokeWidth=3;" parent="1" vertex="1">
          <mxGeometry x="580" y="269" width="30" height="30" as="geometry" />
        </mxCell>
        <mxCell id="p5L9RwOuj42B9GvSqFFH-19" value="" style="endArrow=none;html=1;strokeWidth=1;" parent="1" source="p5L9RwOuj42B9GvSqFFH-15" target="p5L9RwOuj42B9GvSqFFH-11" edge="1">
          <mxGeometry width="50" height="50" relative="1" as="geometry">
            <mxPoint x="550" y="269" as="sourcePoint" />
            <mxPoint x="600" y="219" as="targetPoint" />
          </mxGeometry>
        </mxCell>
        <mxCell id="p5L9RwOuj42B9GvSqFFH-20" value="" style="endArrow=none;html=1;strokeWidth=1;" parent="1" source="p5L9RwOuj42B9GvSqFFH-15" target="p5L9RwOuj42B9GvSqFFH-12" edge="1">
          <mxGeometry width="50" height="50" relative="1" as="geometry">
            <mxPoint x="560" y="279" as="sourcePoint" />
            <mxPoint x="610" y="229" as="targetPoint" />
          </mxGeometry>
        </mxCell>
        <mxCell id="p5L9RwOuj42B9GvSqFFH-21" value="" style="endArrow=none;html=1;strokeWidth=1;" parent="1" source="p5L9RwOuj42B9GvSqFFH-15" target="p5L9RwOuj42B9GvSqFFH-13" edge="1">
          <mxGeometry width="50" height="50" relative="1" as="geometry">
            <mxPoint x="570" y="289" as="sourcePoint" />
            <mxPoint x="620" y="239" as="targetPoint" />
          </mxGeometry>
        </mxCell>
        <mxCell id="p5L9RwOuj42B9GvSqFFH-22" value="" style="endArrow=none;html=1;strokeWidth=1;" parent="1" source="p5L9RwOuj42B9GvSqFFH-15" target="p5L9RwOuj42B9GvSqFFH-14" edge="1">
          <mxGeometry width="50" height="50" relative="1" as="geometry">
            <mxPoint x="580" y="299" as="sourcePoint" />
            <mxPoint x="630" y="249" as="targetPoint" />
          </mxGeometry>
        </mxCell>
        <mxCell id="p5L9RwOuj42B9GvSqFFH-23" value="" style="endArrow=none;html=1;strokeWidth=1;" parent="1" source="p5L9RwOuj42B9GvSqFFH-16" target="p5L9RwOuj42B9GvSqFFH-11" edge="1">
          <mxGeometry width="50" height="50" relative="1" as="geometry">
            <mxPoint x="590" y="309" as="sourcePoint" />
            <mxPoint x="640" y="259" as="targetPoint" />
          </mxGeometry>
        </mxCell>
        <mxCell id="p5L9RwOuj42B9GvSqFFH-24" value="" style="endArrow=none;html=1;strokeWidth=1;" parent="1" source="p5L9RwOuj42B9GvSqFFH-16" target="p5L9RwOuj42B9GvSqFFH-12" edge="1">
          <mxGeometry width="50" height="50" relative="1" as="geometry">
            <mxPoint x="600" y="319" as="sourcePoint" />
            <mxPoint x="650" y="269" as="targetPoint" />
          </mxGeometry>
        </mxCell>
        <mxCell id="p5L9RwOuj42B9GvSqFFH-25" value="" style="endArrow=none;html=1;strokeWidth=1;" parent="1" source="p5L9RwOuj42B9GvSqFFH-16" target="p5L9RwOuj42B9GvSqFFH-13" edge="1">
          <mxGeometry width="50" height="50" relative="1" as="geometry">
            <mxPoint x="610" y="329" as="sourcePoint" />
            <mxPoint x="660" y="279" as="targetPoint" />
          </mxGeometry>
        </mxCell>
        <mxCell id="p5L9RwOuj42B9GvSqFFH-26" value="" style="endArrow=none;html=1;strokeWidth=1;" parent="1" source="p5L9RwOuj42B9GvSqFFH-16" target="p5L9RwOuj42B9GvSqFFH-14" edge="1">
          <mxGeometry width="50" height="50" relative="1" as="geometry">
            <mxPoint x="620" y="339" as="sourcePoint" />
            <mxPoint x="670" y="289" as="targetPoint" />
          </mxGeometry>
        </mxCell>
        <mxCell id="p5L9RwOuj42B9GvSqFFH-27" value="" style="endArrow=none;html=1;strokeWidth=1;" parent="1" source="p5L9RwOuj42B9GvSqFFH-17" target="p5L9RwOuj42B9GvSqFFH-11" edge="1">
          <mxGeometry width="50" height="50" relative="1" as="geometry">
            <mxPoint x="630" y="349" as="sourcePoint" />
            <mxPoint x="680" y="299" as="targetPoint" />
          </mxGeometry>
        </mxCell>
        <mxCell id="p5L9RwOuj42B9GvSqFFH-28" value="" style="endArrow=none;html=1;strokeWidth=1;" parent="1" source="p5L9RwOuj42B9GvSqFFH-17" target="p5L9RwOuj42B9GvSqFFH-12" edge="1">
          <mxGeometry width="50" height="50" relative="1" as="geometry">
            <mxPoint x="640" y="359" as="sourcePoint" />
            <mxPoint x="690" y="309" as="targetPoint" />
          </mxGeometry>
        </mxCell>
        <mxCell id="p5L9RwOuj42B9GvSqFFH-29" value="" style="endArrow=none;html=1;strokeWidth=1;" parent="1" source="p5L9RwOuj42B9GvSqFFH-17" target="p5L9RwOuj42B9GvSqFFH-13" edge="1">
          <mxGeometry width="50" height="50" relative="1" as="geometry">
            <mxPoint x="650" y="369" as="sourcePoint" />
            <mxPoint x="700" y="319" as="targetPoint" />
          </mxGeometry>
        </mxCell>
        <mxCell id="p5L9RwOuj42B9GvSqFFH-30" value="" style="endArrow=none;html=1;strokeWidth=1;" parent="1" source="p5L9RwOuj42B9GvSqFFH-17" target="p5L9RwOuj42B9GvSqFFH-14" edge="1">
          <mxGeometry width="50" height="50" relative="1" as="geometry">
            <mxPoint x="660" y="379" as="sourcePoint" />
            <mxPoint x="710" y="329" as="targetPoint" />
          </mxGeometry>
        </mxCell>
        <mxCell id="p5L9RwOuj42B9GvSqFFH-31" value="" style="endArrow=none;html=1;strokeWidth=1;" parent="1" source="p5L9RwOuj42B9GvSqFFH-11" target="p5L9RwOuj42B9GvSqFFH-18" edge="1">
          <mxGeometry width="50" height="50" relative="1" as="geometry">
            <mxPoint x="670" y="389" as="sourcePoint" />
            <mxPoint x="720" y="339" as="targetPoint" />
          </mxGeometry>
        </mxCell>
        <mxCell id="p5L9RwOuj42B9GvSqFFH-32" value="" style="endArrow=none;html=1;strokeWidth=1;" parent="1" source="p5L9RwOuj42B9GvSqFFH-12" target="p5L9RwOuj42B9GvSqFFH-18" edge="1">
          <mxGeometry width="50" height="50" relative="1" as="geometry">
            <mxPoint x="680" y="399" as="sourcePoint" />
            <mxPoint x="730" y="349" as="targetPoint" />
          </mxGeometry>
        </mxCell>
        <mxCell id="p5L9RwOuj42B9GvSqFFH-33" value="" style="endArrow=none;html=1;strokeWidth=1;" parent="1" source="p5L9RwOuj42B9GvSqFFH-13" target="p5L9RwOuj42B9GvSqFFH-18" edge="1">
          <mxGeometry width="50" height="50" relative="1" as="geometry">
            <mxPoint x="690" y="409" as="sourcePoint" />
            <mxPoint x="740" y="359" as="targetPoint" />
          </mxGeometry>
        </mxCell>
        <mxCell id="p5L9RwOuj42B9GvSqFFH-34" value="" style="endArrow=none;html=1;strokeWidth=1;" parent="1" source="p5L9RwOuj42B9GvSqFFH-14" target="p5L9RwOuj42B9GvSqFFH-18" edge="1">
          <mxGeometry width="50" height="50" relative="1" as="geometry">
            <mxPoint x="700" y="419" as="sourcePoint" />
            <mxPoint x="750" y="369" as="targetPoint" />
          </mxGeometry>
        </mxCell>
        <mxCell id="p5L9RwOuj42B9GvSqFFH-35" value="" style="shape=flexArrow;endArrow=classic;html=1;strokeWidth=1;endWidth=42.77777777777778;endSize=10.833333333333334;width=30;strokeColor=none;fillColor=#D1D1D1;" parent="1" edge="1">
          <mxGeometry width="50" height="50" relative="1" as="geometry">
            <mxPoint x="180" y="283.58000000000004" as="sourcePoint" />
            <mxPoint x="250" y="284" as="targetPoint" />
          </mxGeometry>
        </mxCell>
        <mxCell id="p5L9RwOuj42B9GvSqFFH-36" value="" style="shape=flexArrow;endArrow=classic;html=1;strokeWidth=1;endWidth=42.77777777777778;endSize=10.833333333333334;width=30;strokeColor=none;fillColor=#D1D1D1;" parent="1" edge="1">
          <mxGeometry width="50" height="50" relative="1" as="geometry">
            <mxPoint x="380" y="283.5799999999999" as="sourcePoint" />
            <mxPoint x="450" y="284" as="targetPoint" />
          </mxGeometry>
        </mxCell>
        <mxCell id="p5L9RwOuj42B9GvSqFFH-37" value="" style="shape=flexArrow;endArrow=classic;html=1;strokeWidth=1;endWidth=42.77777777777778;endSize=10.833333333333334;width=30;strokeColor=none;fillColor=#D1D1D1;" parent="1" edge="1">
          <mxGeometry width="50" height="50" relative="1" as="geometry">
            <mxPoint x="620" y="283.5799999999999" as="sourcePoint" />
            <mxPoint x="690" y="284" as="targetPoint" />
          </mxGeometry>
        </mxCell>
        <mxCell id="p5L9RwOuj42B9GvSqFFH-51" style="edgeStyle=orthogonalEdgeStyle;rounded=0;orthogonalLoop=1;jettySize=auto;html=1;exitX=1;exitY=0.5;exitDx=0;exitDy=0;strokeWidth=3;fillColor=#D1D1D1;fontFamily=Tahoma;fontSize=48;endArrow=blockThin;endFill=1;" parent="1" source="p5L9RwOuj42B9GvSqFFH-38" target="p5L9RwOuj42B9GvSqFFH-39" edge="1">
          <mxGeometry relative="1" as="geometry" />
        </mxCell>
        <mxCell id="p5L9RwOuj42B9GvSqFFH-38" value="FFT" style="text;html=1;strokeColor=none;fillColor=none;align=center;verticalAlign=middle;whiteSpace=wrap;rounded=0;fontFamily=Gill Sans;fontSize=48;fontStyle=0" parent="1" vertex="1">
          <mxGeometry x="80" y="460" width="80" height="60" as="geometry" />
        </mxCell>
        <mxCell id="p5L9RwOuj42B9GvSqFFH-52" style="edgeStyle=orthogonalEdgeStyle;rounded=0;orthogonalLoop=1;jettySize=auto;html=1;exitX=1;exitY=0.5;exitDx=0;exitDy=0;strokeWidth=3;fillColor=#D1D1D1;fontFamily=Tahoma;fontSize=48;endArrow=blockThin;endFill=1;" parent="1" source="p5L9RwOuj42B9GvSqFFH-39" target="p5L9RwOuj42B9GvSqFFH-41" edge="1">
          <mxGeometry relative="1" as="geometry" />
        </mxCell>
        <mxCell id="p5L9RwOuj42B9GvSqFFH-39" value="|x|" style="text;html=1;strokeColor=none;fillColor=none;align=center;verticalAlign=middle;whiteSpace=wrap;rounded=0;fontFamily=Gill Sans;fontSize=48;fontStyle=0" parent="1" vertex="1">
          <mxGeometry x="190" y="460" width="54" height="60" as="geometry" />
        </mxCell>
        <mxCell id="p5L9RwOuj42B9GvSqFFH-53" style="edgeStyle=orthogonalEdgeStyle;rounded=0;orthogonalLoop=1;jettySize=auto;html=1;exitX=1;exitY=0.5;exitDx=0;exitDy=0;strokeWidth=3;fillColor=#D1D1D1;fontFamily=Tahoma;fontSize=48;endArrow=blockThin;endFill=1;" parent="1" source="p5L9RwOuj42B9GvSqFFH-41" target="p5L9RwOuj42B9GvSqFFH-43" edge="1">
          <mxGeometry relative="1" as="geometry" />
        </mxCell>
        <mxCell id="p5L9RwOuj42B9GvSqFFH-41" value="xM" style="text;html=1;strokeColor=none;fillColor=none;align=center;verticalAlign=middle;whiteSpace=wrap;rounded=0;fontFamily=Gill Sans;fontSize=48;fontStyle=0" parent="1" vertex="1">
          <mxGeometry x="280" y="460" width="75" height="60" as="geometry" />
        </mxCell>
        <mxCell id="p5L9RwOuj42B9GvSqFFH-54" style="edgeStyle=orthogonalEdgeStyle;rounded=0;orthogonalLoop=1;jettySize=auto;html=1;exitX=1;exitY=0.5;exitDx=0;exitDy=0;strokeWidth=3;fillColor=#D1D1D1;fontFamily=Tahoma;fontSize=48;endArrow=blockThin;endFill=1;" parent="1" source="p5L9RwOuj42B9GvSqFFH-43" target="p5L9RwOuj42B9GvSqFFH-44" edge="1">
          <mxGeometry relative="1" as="geometry" />
        </mxCell>
        <mxCell id="p5L9RwOuj42B9GvSqFFH-43" value="log(x)" style="text;html=1;strokeColor=none;fillColor=none;align=center;verticalAlign=middle;whiteSpace=wrap;rounded=0;fontFamily=Gill Sans;fontSize=48;fontStyle=0" parent="1" vertex="1">
          <mxGeometry x="380" y="460" width="120" height="60" as="geometry" />
        </mxCell>
        <mxCell id="p5L9RwOuj42B9GvSqFFH-44" value="DCT-II" style="text;html=1;strokeColor=none;fillColor=none;align=center;verticalAlign=middle;whiteSpace=wrap;rounded=0;fontFamily=Gill Sans;fontSize=48;fontStyle=0" parent="1" vertex="1">
          <mxGeometry x="530" y="460" width="140" height="60" as="geometry" />
        </mxCell>
        <mxCell id="p5L9RwOuj42B9GvSqFFH-58" style="edgeStyle=orthogonalEdgeStyle;rounded=0;orthogonalLoop=1;jettySize=auto;html=1;exitX=1;exitY=0.5;exitDx=0;exitDy=0;endArrow=blockThin;endFill=1;strokeWidth=3;fillColor=#D1D1D1;fontFamily=Tahoma;fontSize=48;" parent="1" source="p5L9RwOuj42B9GvSqFFH-55" target="p5L9RwOuj42B9GvSqFFH-56" edge="1">
          <mxGeometry relative="1" as="geometry" />
        </mxCell>
        <mxCell id="p5L9RwOuj42B9GvSqFFH-55" value="[..]" style="text;html=1;strokeColor=none;fillColor=none;align=center;verticalAlign=middle;whiteSpace=wrap;rounded=0;fontFamily=Gill Sans;fontSize=48;fontStyle=0" parent="1" vertex="1">
          <mxGeometry x="425" y="595" width="70" height="60" as="geometry" />
        </mxCell>
        <mxCell id="p5L9RwOuj42B9GvSqFFH-59" style="edgeStyle=orthogonalEdgeStyle;rounded=0;orthogonalLoop=1;jettySize=auto;html=1;exitX=1;exitY=0.5;exitDx=0;exitDy=0;endArrow=blockThin;endFill=1;strokeWidth=3;fillColor=#D1D1D1;fontFamily=Tahoma;fontSize=48;" parent="1" source="p5L9RwOuj42B9GvSqFFH-56" target="p5L9RwOuj42B9GvSqFFH-57" edge="1">
          <mxGeometry relative="1" as="geometry" />
        </mxCell>
        <mxCell id="p5L9RwOuj42B9GvSqFFH-56" value="RFFT" style="text;html=1;strokeColor=none;fillColor=none;align=center;verticalAlign=middle;whiteSpace=wrap;rounded=0;fontFamily=Gill Sans;fontSize=48;fontStyle=0" parent="1" vertex="1">
          <mxGeometry x="532" y="595" width="113" height="60" as="geometry" />
        </mxCell>
        <mxCell id="p5L9RwOuj42B9GvSqFFH-57" value="real" style="text;html=1;strokeColor=none;fillColor=none;align=center;verticalAlign=middle;whiteSpace=wrap;rounded=0;fontFamily=Gill Sans;fontSize=48;fontStyle=0" parent="1" vertex="1">
          <mxGeometry x="685" y="595" width="75" height="60" as="geometry" />
        </mxCell>
        <mxCell id="p5L9RwOuj42B9GvSqFFH-62" value="" style="shape=trapezoid;perimeter=trapezoidPerimeter;whiteSpace=wrap;html=1;strokeWidth=3;fontFamily=Tahoma;fontSize=48;size=0.2939068100358427;strokeColor=none;fillColor=#999999;gradientColor=#FFFFFF;" parent="1" vertex="1">
          <mxGeometry x="444.5" y="512" width="310" height="85" as="geometry" />
        </mxCell>
        <mxCell id="p5L9RwOuj42B9GvSqFFH-66" value="" style="rounded=0;whiteSpace=wrap;html=1;strokeWidth=1;fillColor=#ffffff;gradientColor=none;fontFamily=Tahoma;fontSize=48;" parent="1" vertex="1">
          <mxGeometry x="85" y="820" width="55" height="20" as="geometry" />
        </mxCell>
        <mxCell id="p5L9RwOuj42B9GvSqFFH-67" value="&lt;font style=&quot;font-size: 12px&quot;&gt;1@31x13&lt;/font&gt;" style="text;html=1;align=center;verticalAlign=middle;resizable=0;points=[];autosize=1;fontSize=12;fontFamily=Tahoma;" parent="1" vertex="1">
          <mxGeometry x="80" y="800" width="70" height="20" as="geometry" />
        </mxCell>
        <mxCell id="p5L9RwOuj42B9GvSqFFH-71" value="" style="rounded=0;whiteSpace=wrap;html=1;strokeWidth=1;fillColor=#ffffff;gradientColor=none;fontFamily=Tahoma;fontSize=48;" parent="1" vertex="1">
          <mxGeometry x="177.5" y="800" width="55" height="20" as="geometry" />
        </mxCell>
        <mxCell id="p5L9RwOuj42B9GvSqFFH-72" value="&lt;font style=&quot;font-size: 12px&quot;&gt;16@9x13&lt;/font&gt;" style="text;html=1;align=center;verticalAlign=middle;resizable=0;points=[];autosize=1;fontSize=12;fontFamily=Tahoma;" parent="1" vertex="1">
          <mxGeometry x="170" y="780" width="70" height="20" as="geometry" />
        </mxCell>
        <mxCell id="p5L9RwOuj42B9GvSqFFH-79" value="" style="rounded=0;whiteSpace=wrap;html=1;strokeWidth=1;fillColor=#ffffff;gradientColor=none;fontFamily=Tahoma;fontSize=48;" parent="1" vertex="1">
          <mxGeometry x="185" y="810" width="55" height="20" as="geometry" />
        </mxCell>
        <mxCell id="p5L9RwOuj42B9GvSqFFH-80" value="" style="rounded=0;whiteSpace=wrap;html=1;strokeWidth=1;fillColor=#ffffff;gradientColor=none;fontFamily=Tahoma;fontSize=48;" parent="1" vertex="1">
          <mxGeometry x="195" y="820" width="55" height="20" as="geometry" />
        </mxCell>
        <mxCell id="p5L9RwOuj42B9GvSqFFH-81" value="" style="rounded=0;whiteSpace=wrap;html=1;strokeWidth=1;fillColor=#ffffff;gradientColor=none;fontFamily=Tahoma;fontSize=48;" parent="1" vertex="1">
          <mxGeometry x="205" y="830" width="55" height="20" as="geometry" />
        </mxCell>
        <mxCell id="p5L9RwOuj42B9GvSqFFH-82" value="" style="rounded=0;whiteSpace=wrap;html=1;strokeWidth=1;fillColor=#ffffff;gradientColor=none;fontFamily=Tahoma;fontSize=48;" parent="1" vertex="1">
          <mxGeometry x="232.5" y="860" width="55" height="20" as="geometry" />
        </mxCell>
        <mxCell id="p5L9RwOuj42B9GvSqFFH-83" value="" style="endArrow=none;dashed=1;html=1;strokeWidth=3;fillColor=#D1D1D1;fontFamily=Tahoma;fontSize=48;dashPattern=1 2;" parent="1" edge="1">
          <mxGeometry width="50" height="50" relative="1" as="geometry">
            <mxPoint x="232.5" y="840" as="sourcePoint" />
            <mxPoint x="252.5" y="860" as="targetPoint" />
          </mxGeometry>
        </mxCell>
        <mxCell id="p5L9RwOuj42B9GvSqFFH-84" value="" style="rounded=0;whiteSpace=wrap;html=1;strokeWidth=1;fillColor=#ffffff;gradientColor=none;fontFamily=Tahoma;fontSize=48;" parent="1" vertex="1">
          <mxGeometry x="287.5" y="800" width="55" height="20" as="geometry" />
        </mxCell>
        <mxCell id="p5L9RwOuj42B9GvSqFFH-85" value="&lt;font style=&quot;font-size: 12px&quot;&gt;32@7x11&lt;/font&gt;" style="text;html=1;align=center;verticalAlign=middle;resizable=0;points=[];autosize=1;fontSize=12;fontFamily=Tahoma;" parent="1" vertex="1">
          <mxGeometry x="279" y="780" width="70" height="20" as="geometry" />
        </mxCell>
        <mxCell id="p5L9RwOuj42B9GvSqFFH-86" value="" style="rounded=0;whiteSpace=wrap;html=1;strokeWidth=1;fillColor=#ffffff;gradientColor=none;fontFamily=Tahoma;fontSize=48;" parent="1" vertex="1">
          <mxGeometry x="295" y="810" width="55" height="20" as="geometry" />
        </mxCell>
        <mxCell id="p5L9RwOuj42B9GvSqFFH-87" value="" style="rounded=0;whiteSpace=wrap;html=1;strokeWidth=1;fillColor=#ffffff;gradientColor=none;fontFamily=Tahoma;fontSize=48;" parent="1" vertex="1">
          <mxGeometry x="305" y="820" width="55" height="20" as="geometry" />
        </mxCell>
        <mxCell id="p5L9RwOuj42B9GvSqFFH-88" value="" style="rounded=0;whiteSpace=wrap;html=1;strokeWidth=1;fillColor=#ffffff;gradientColor=none;fontFamily=Tahoma;fontSize=48;" parent="1" vertex="1">
          <mxGeometry x="315" y="830" width="55" height="20" as="geometry" />
        </mxCell>
        <mxCell id="p5L9RwOuj42B9GvSqFFH-89" value="" style="rounded=0;whiteSpace=wrap;html=1;strokeWidth=1;fillColor=#ffffff;gradientColor=none;fontFamily=Tahoma;fontSize=48;" parent="1" vertex="1">
          <mxGeometry x="342.5" y="860" width="55" height="20" as="geometry" />
        </mxCell>
        <mxCell id="p5L9RwOuj42B9GvSqFFH-90" value="" style="endArrow=none;dashed=1;html=1;strokeWidth=3;fillColor=#D1D1D1;fontFamily=Tahoma;fontSize=48;dashPattern=1 2;" parent="1" edge="1">
          <mxGeometry width="50" height="50" relative="1" as="geometry">
            <mxPoint x="342.5" y="840" as="sourcePoint" />
            <mxPoint x="362.5" y="860" as="targetPoint" />
          </mxGeometry>
        </mxCell>
        <mxCell id="p5L9RwOuj42B9GvSqFFH-92" value="" style="rounded=0;whiteSpace=wrap;html=1;strokeWidth=1;fillColor=#ffffff;gradientColor=none;fontFamily=Tahoma;fontSize=48;" parent="1" vertex="1">
          <mxGeometry x="405" y="800" width="55" height="20" as="geometry" />
        </mxCell>
        <mxCell id="p5L9RwOuj42B9GvSqFFH-93" value="&lt;font style=&quot;font-size: 12px&quot;&gt;64@5x3&lt;/font&gt;" style="text;html=1;align=center;verticalAlign=middle;resizable=0;points=[];autosize=1;fontSize=12;fontFamily=Tahoma;" parent="1" vertex="1">
          <mxGeometry x="402.5" y="780" width="60" height="20" as="geometry" />
        </mxCell>
        <mxCell id="p5L9RwOuj42B9GvSqFFH-94" value="" style="rounded=0;whiteSpace=wrap;html=1;strokeWidth=1;fillColor=#ffffff;gradientColor=none;fontFamily=Tahoma;fontSize=48;" parent="1" vertex="1">
          <mxGeometry x="412.5" y="810" width="55" height="20" as="geometry" />
        </mxCell>
        <mxCell id="p5L9RwOuj42B9GvSqFFH-95" value="" style="rounded=0;whiteSpace=wrap;html=1;strokeWidth=1;fillColor=#ffffff;gradientColor=none;fontFamily=Tahoma;fontSize=48;" parent="1" vertex="1">
          <mxGeometry x="422.5" y="820" width="55" height="20" as="geometry" />
        </mxCell>
        <mxCell id="p5L9RwOuj42B9GvSqFFH-96" value="" style="rounded=0;whiteSpace=wrap;html=1;strokeWidth=1;fillColor=#ffffff;gradientColor=none;fontFamily=Tahoma;fontSize=48;" parent="1" vertex="1">
          <mxGeometry x="432.5" y="830" width="55" height="20" as="geometry" />
        </mxCell>
        <mxCell id="p5L9RwOuj42B9GvSqFFH-97" value="" style="rounded=0;whiteSpace=wrap;html=1;strokeWidth=1;fillColor=#ffffff;gradientColor=none;fontFamily=Tahoma;fontSize=48;" parent="1" vertex="1">
          <mxGeometry x="460" y="860" width="55" height="20" as="geometry" />
        </mxCell>
        <mxCell id="p5L9RwOuj42B9GvSqFFH-98" value="" style="endArrow=none;dashed=1;html=1;strokeWidth=3;fillColor=#D1D1D1;fontFamily=Tahoma;fontSize=48;dashPattern=1 2;" parent="1" edge="1">
          <mxGeometry width="50" height="50" relative="1" as="geometry">
            <mxPoint x="460" y="840" as="sourcePoint" />
            <mxPoint x="480" y="860" as="targetPoint" />
          </mxGeometry>
        </mxCell>
        <mxCell id="p5L9RwOuj42B9GvSqFFH-99" value="" style="rounded=0;whiteSpace=wrap;html=1;strokeWidth=1;fillColor=#ffffff;gradientColor=none;fontFamily=Tahoma;fontSize=48;" parent="1" vertex="1">
          <mxGeometry x="520" y="800" width="55" height="20" as="geometry" />
        </mxCell>
        <mxCell id="p5L9RwOuj42B9GvSqFFH-100" value="&lt;font style=&quot;font-size: 12px&quot;&gt;32@5x3&lt;/font&gt;" style="text;html=1;align=center;verticalAlign=middle;resizable=0;points=[];autosize=1;fontSize=12;fontFamily=Tahoma;" parent="1" vertex="1">
          <mxGeometry x="515" y="780" width="60" height="20" as="geometry" />
        </mxCell>
        <mxCell id="p5L9RwOuj42B9GvSqFFH-101" value="" style="rounded=0;whiteSpace=wrap;html=1;strokeWidth=1;fillColor=#ffffff;gradientColor=none;fontFamily=Tahoma;fontSize=48;" parent="1" vertex="1">
          <mxGeometry x="527.5" y="810" width="55" height="20" as="geometry" />
        </mxCell>
        <mxCell id="p5L9RwOuj42B9GvSqFFH-102" value="" style="rounded=0;whiteSpace=wrap;html=1;strokeWidth=1;fillColor=#ffffff;gradientColor=none;fontFamily=Tahoma;fontSize=48;" parent="1" vertex="1">
          <mxGeometry x="537.5" y="820" width="55" height="20" as="geometry" />
        </mxCell>
        <mxCell id="p5L9RwOuj42B9GvSqFFH-103" value="" style="rounded=0;whiteSpace=wrap;html=1;strokeWidth=1;fillColor=#ffffff;gradientColor=none;fontFamily=Tahoma;fontSize=48;" parent="1" vertex="1">
          <mxGeometry x="547.5" y="830" width="55" height="20" as="geometry" />
        </mxCell>
        <mxCell id="p5L9RwOuj42B9GvSqFFH-104" value="" style="rounded=0;whiteSpace=wrap;html=1;strokeWidth=1;fillColor=#ffffff;gradientColor=none;fontFamily=Tahoma;fontSize=48;" parent="1" vertex="1">
          <mxGeometry x="575" y="860" width="55" height="20" as="geometry" />
        </mxCell>
        <mxCell id="p5L9RwOuj42B9GvSqFFH-105" value="" style="endArrow=none;dashed=1;html=1;strokeWidth=3;fillColor=#D1D1D1;fontFamily=Tahoma;fontSize=48;dashPattern=1 2;" parent="1" edge="1">
          <mxGeometry width="50" height="50" relative="1" as="geometry">
            <mxPoint x="575" y="840" as="sourcePoint" />
            <mxPoint x="595" y="860" as="targetPoint" />
          </mxGeometry>
        </mxCell>
        <mxCell id="p5L9RwOuj42B9GvSqFFH-106" value="" style="rounded=0;whiteSpace=wrap;html=1;strokeWidth=1;fillColor=#ffffff;gradientColor=none;fontFamily=Tahoma;fontSize=48;" parent="1" vertex="1">
          <mxGeometry x="685" y="810" width="5" height="60" as="geometry" />
        </mxCell>
        <mxCell id="p5L9RwOuj42B9GvSqFFH-107" value="&lt;font style=&quot;font-size: 12px&quot;&gt;1@1x10&lt;/font&gt;" style="text;html=1;align=center;verticalAlign=middle;resizable=0;points=[];autosize=1;fontSize=12;fontFamily=Tahoma;" parent="1" vertex="1">
          <mxGeometry x="657.5" y="780" width="60" height="20" as="geometry" />
        </mxCell>
        <mxCell id="p5L9RwOuj42B9GvSqFFH-108" value="" style="endArrow=none;html=1;strokeWidth=1;fillColor=#D1D1D1;fontFamily=Tahoma;fontSize=48;entryX=0;entryY=1;entryDx=0;entryDy=0;" parent="1" target="p5L9RwOuj42B9GvSqFFH-81" edge="1">
          <mxGeometry width="50" height="50" relative="1" as="geometry">
            <mxPoint x="110" y="830" as="sourcePoint" />
            <mxPoint x="160" y="780" as="targetPoint" />
          </mxGeometry>
        </mxCell>
        <mxCell id="p5L9RwOuj42B9GvSqFFH-109" value="" style="endArrow=none;html=1;strokeWidth=1;fillColor=#D1D1D1;fontFamily=Tahoma;fontSize=48;entryX=0;entryY=0;entryDx=0;entryDy=0;" parent="1" target="p5L9RwOuj42B9GvSqFFH-81" edge="1">
          <mxGeometry width="50" height="50" relative="1" as="geometry">
            <mxPoint x="113" y="830" as="sourcePoint" />
            <mxPoint x="195" y="820" as="targetPoint" />
          </mxGeometry>
        </mxCell>
        <mxCell id="p5L9RwOuj42B9GvSqFFH-110" value="" style="endArrow=none;html=1;strokeWidth=1;fillColor=#D1D1D1;fontFamily=Tahoma;fontSize=48;entryX=0;entryY=0;entryDx=0;entryDy=0;" parent="1" source="p5L9RwOuj42B9GvSqFFH-81" target="p5L9RwOuj42B9GvSqFFH-86" edge="1">
          <mxGeometry width="50" height="50" relative="1" as="geometry">
            <mxPoint x="123" y="840" as="sourcePoint" />
            <mxPoint x="215" y="840" as="targetPoint" />
          </mxGeometry>
        </mxCell>
        <mxCell id="p5L9RwOuj42B9GvSqFFH-111" value="" style="endArrow=none;html=1;strokeWidth=1;fillColor=#D1D1D1;fontFamily=Tahoma;fontSize=48;entryX=0;entryY=1;entryDx=0;entryDy=0;" parent="1" source="p5L9RwOuj42B9GvSqFFH-81" target="p5L9RwOuj42B9GvSqFFH-86" edge="1">
          <mxGeometry width="50" height="50" relative="1" as="geometry">
            <mxPoint x="230" y="840" as="sourcePoint" />
            <mxPoint x="305" y="820" as="targetPoint" />
          </mxGeometry>
        </mxCell>
        <mxCell id="p5L9RwOuj42B9GvSqFFH-112" value="" style="endArrow=none;html=1;strokeWidth=1;fillColor=#D1D1D1;fontFamily=Tahoma;fontSize=48;entryX=0;entryY=0;entryDx=0;entryDy=0;" parent="1" source="p5L9RwOuj42B9GvSqFFH-88" target="p5L9RwOuj42B9GvSqFFH-94" edge="1">
          <mxGeometry width="50" height="50" relative="1" as="geometry">
            <mxPoint x="273.33333333333326" y="850" as="sourcePoint" />
            <mxPoint x="315" y="830" as="targetPoint" />
          </mxGeometry>
        </mxCell>
        <mxCell id="p5L9RwOuj42B9GvSqFFH-113" value="" style="endArrow=none;html=1;strokeWidth=1;fillColor=#D1D1D1;fontFamily=Tahoma;fontSize=48;entryX=0;entryY=1;entryDx=0;entryDy=0;" parent="1" source="p5L9RwOuj42B9GvSqFFH-88" target="p5L9RwOuj42B9GvSqFFH-94" edge="1">
          <mxGeometry width="50" height="50" relative="1" as="geometry">
            <mxPoint x="283.33333333333326" y="860" as="sourcePoint" />
            <mxPoint x="325" y="840" as="targetPoint" />
          </mxGeometry>
        </mxCell>
        <mxCell id="p5L9RwOuj42B9GvSqFFH-114" value="" style="endArrow=none;html=1;strokeWidth=1;fillColor=#D1D1D1;fontFamily=Tahoma;fontSize=48;entryX=0;entryY=0;entryDx=0;entryDy=0;" parent="1" source="p5L9RwOuj42B9GvSqFFH-96" target="p5L9RwOuj42B9GvSqFFH-101" edge="1">
          <mxGeometry width="50" height="50" relative="1" as="geometry">
            <mxPoint x="293.33333333333326" y="870" as="sourcePoint" />
            <mxPoint x="335" y="850" as="targetPoint" />
          </mxGeometry>
        </mxCell>
        <mxCell id="p5L9RwOuj42B9GvSqFFH-115" value="" style="endArrow=none;html=1;strokeWidth=1;fillColor=#D1D1D1;fontFamily=Tahoma;fontSize=48;entryX=0;entryY=1;entryDx=0;entryDy=0;" parent="1" source="p5L9RwOuj42B9GvSqFFH-96" target="p5L9RwOuj42B9GvSqFFH-101" edge="1">
          <mxGeometry width="50" height="50" relative="1" as="geometry">
            <mxPoint x="460" y="850" as="sourcePoint" />
            <mxPoint x="345" y="860" as="targetPoint" />
          </mxGeometry>
        </mxCell>
        <mxCell id="p5L9RwOuj42B9GvSqFFH-116" value="" style="endArrow=none;html=1;strokeWidth=1;fillColor=#D1D1D1;fontFamily=Tahoma;fontSize=48;entryX=0;entryY=0;entryDx=0;entryDy=0;exitX=1;exitY=0;exitDx=0;exitDy=0;" parent="1" source="p5L9RwOuj42B9GvSqFFH-103" target="p5L9RwOuj42B9GvSqFFH-106" edge="1">
          <mxGeometry width="50" height="50" relative="1" as="geometry">
            <mxPoint x="313.33333333333326" y="890" as="sourcePoint" />
            <mxPoint x="355" y="870" as="targetPoint" />
          </mxGeometry>
        </mxCell>
        <mxCell id="p5L9RwOuj42B9GvSqFFH-117" value="" style="endArrow=none;html=1;strokeWidth=1;fillColor=#D1D1D1;fontFamily=Tahoma;fontSize=48;entryX=0;entryY=1;entryDx=0;entryDy=0;" parent="1" source="p5L9RwOuj42B9GvSqFFH-103" target="p5L9RwOuj42B9GvSqFFH-106" edge="1">
          <mxGeometry width="50" height="50" relative="1" as="geometry">
            <mxPoint x="323.33333333333326" y="900" as="sourcePoint" />
            <mxPoint x="365" y="880" as="targetPoint" />
          </mxGeometry>
        </mxCell>
        <mxCell id="p5L9RwOuj42B9GvSqFFH-118" value="&lt;div style=&quot;font-size: 12px;&quot;&gt;&lt;font style=&quot;font-size: 12px;&quot;&gt;Conv&lt;/font&gt;&lt;/div&gt;&lt;div style=&quot;font-size: 12px;&quot;&gt;&lt;font style=&quot;font-size: 12px;&quot;&gt;ReLu&lt;/font&gt;&lt;/div&gt;&lt;div style=&quot;font-size: 12px;&quot;&gt;&lt;font style=&quot;font-size: 12px;&quot;&gt;MaxPool&lt;br style=&quot;font-size: 12px;&quot;&gt;&lt;/font&gt;&lt;/div&gt;" style="text;html=1;align=center;verticalAlign=middle;resizable=0;points=[];autosize=1;fontSize=12;fontFamily=Tahoma;strokeColor=none;fontColor=#000000;" parent="1" vertex="1">
          <mxGeometry x="125" y="890" width="60" height="50" as="geometry" />
        </mxCell>
        <mxCell id="p5L9RwOuj42B9GvSqFFH-119" value="&lt;div style=&quot;font-size: 12px;&quot;&gt;&lt;font style=&quot;font-size: 12px;&quot;&gt;Conv&lt;/font&gt;&lt;/div&gt;&lt;div style=&quot;font-size: 12px;&quot;&gt;&lt;font style=&quot;font-size: 12px;&quot;&gt;ReLu&lt;/font&gt;&lt;/div&gt;&lt;div style=&quot;font-size: 12px;&quot;&gt;&lt;font style=&quot;font-size: 12px;&quot;&gt;MaxPool&lt;br style=&quot;font-size: 12px;&quot;&gt;&lt;/font&gt;&lt;/div&gt;" style="text;html=1;align=center;verticalAlign=middle;resizable=0;points=[];autosize=1;fontSize=12;fontFamily=Tahoma;strokeColor=none;fontColor=#000000;" parent="1" vertex="1">
          <mxGeometry x="284" y="890" width="60" height="50" as="geometry" />
        </mxCell>
        <mxCell id="p5L9RwOuj42B9GvSqFFH-120" value="&lt;div style=&quot;font-size: 12px&quot;&gt;&lt;font style=&quot;font-size: 12px&quot;&gt;Conv&lt;/font&gt;&lt;/div&gt;&lt;div style=&quot;font-size: 12px&quot;&gt;&lt;font style=&quot;font-size: 12px&quot;&gt;ReLu&lt;/font&gt;&lt;/div&gt;" style="text;html=1;align=center;verticalAlign=middle;resizable=0;points=[];autosize=1;fontSize=12;fontFamily=Tahoma;strokeColor=none;fontColor=#000000;" parent="1" vertex="1">
          <mxGeometry x="410" y="900" width="40" height="30" as="geometry" />
        </mxCell>
        <mxCell id="p5L9RwOuj42B9GvSqFFH-121" value="&lt;div style=&quot;font-size: 12px;&quot;&gt;&lt;font style=&quot;font-size: 12px;&quot;&gt;Conv&lt;/font&gt;&lt;/div&gt;&lt;div style=&quot;font-size: 12px;&quot;&gt;&lt;font style=&quot;font-size: 12px;&quot;&gt;ReLu&lt;/font&gt;&lt;/div&gt;&lt;div style=&quot;font-size: 12px;&quot;&gt;&lt;font style=&quot;font-size: 12px;&quot;&gt;MaxPool&lt;br style=&quot;font-size: 12px;&quot;&gt;&lt;/font&gt;&lt;/div&gt;" style="text;html=1;align=center;verticalAlign=middle;resizable=0;points=[];autosize=1;fontSize=12;fontFamily=Tahoma;strokeColor=none;fontColor=#000000;" parent="1" vertex="1">
          <mxGeometry x="515" y="890" width="60" height="50" as="geometry" />
        </mxCell>
        <mxCell id="p5L9RwOuj42B9GvSqFFH-122" value="Fully Connected" style="text;html=1;align=center;verticalAlign=middle;resizable=0;points=[];autosize=1;fontSize=12;fontFamily=Tahoma;strokeColor=none;fontColor=#000000;" parent="1" vertex="1">
          <mxGeometry x="610" y="905" width="100" height="20" as="geometry" />
        </mxCell>
        <mxCell id="p5L9RwOuj42B9GvSqFFH-123" value="Edison" style="rounded=0;whiteSpace=wrap;html=1;strokeColor=none;strokeWidth=1;fillColor=none;gradientColor=none;fontFamily=Tahoma;fontSize=12;fontColor=#000000;" parent="1" vertex="1">
          <mxGeometry x="130" y="80" width="40" height="20" as="geometry" />
        </mxCell>
        <mxCell id="p5L9RwOuj42B9GvSqFFH-124" value="Cinema" style="rounded=0;whiteSpace=wrap;html=1;strokeColor=none;strokeWidth=1;fillColor=none;gradientColor=none;fontFamily=Tahoma;fontSize=12;fontColor=#000000;" parent="1" vertex="1">
          <mxGeometry x="240" y="20" width="50" height="20" as="geometry" />
        </mxCell>
        <mxCell id="p5L9RwOuj42B9GvSqFFH-127" value="Livingroom" style="rounded=0;whiteSpace=wrap;html=1;strokeColor=none;strokeWidth=1;fillColor=none;gradientColor=none;fontFamily=Tahoma;fontSize=12;fontColor=#000000;" parent="1" vertex="1">
          <mxGeometry x="240" y="110" width="70" height="20" as="geometry" />
        </mxCell>
        <mxCell id="p5L9RwOuj42B9GvSqFFH-128" value="Kitchen" style="rounded=0;whiteSpace=wrap;html=1;strokeColor=none;strokeWidth=1;fillColor=none;gradientColor=none;fontFamily=Tahoma;fontSize=12;fontColor=#000000;" parent="1" vertex="1">
          <mxGeometry x="240" y="140" width="50" height="20" as="geometry" />
        </mxCell>
        <mxCell id="p5L9RwOuj42B9GvSqFFH-132" value="" style="endArrow=blockThin;html=1;strokeColor=#000000;strokeWidth=1;fillColor=#D1D1D1;fontFamily=Tahoma;fontSize=12;fontColor=#000000;endFill=1;entryX=0;entryY=0.5;entryDx=0;entryDy=0;" parent="1" source="p5L9RwOuj42B9GvSqFFH-123" target="p5L9RwOuj42B9GvSqFFH-124" edge="1">
          <mxGeometry width="50" height="50" relative="1" as="geometry">
            <mxPoint x="147.5" y="90" as="sourcePoint" />
            <mxPoint x="160" y="50" as="targetPoint" />
          </mxGeometry>
        </mxCell>
        <mxCell id="p5L9RwOuj42B9GvSqFFH-125" value="Bedroom" style="rounded=0;whiteSpace=wrap;html=1;strokeColor=none;strokeWidth=1;fillColor=none;gradientColor=none;fontFamily=Tahoma;fontSize=12;fontColor=#000000;" parent="1" vertex="1">
          <mxGeometry x="240" y="50" width="60" height="20" as="geometry" />
        </mxCell>
        <mxCell id="p5L9RwOuj42B9GvSqFFH-133" style="edgeStyle=orthogonalEdgeStyle;rounded=0;orthogonalLoop=1;jettySize=auto;html=1;exitX=1;exitY=0.5;exitDx=0;exitDy=0;endArrow=blockThin;endFill=1;strokeWidth=1;fillColor=#D1D1D1;fontFamily=Tahoma;fontSize=12;fontColor=#000000;jumpStyle=none;strokeColor=none;" parent="1" source="p5L9RwOuj42B9GvSqFFH-126" target="p5L9RwOuj42B9GvSqFFH-125" edge="1">
          <mxGeometry relative="1" as="geometry">
            <mxPoint x="170" y="90" as="sourcePoint" />
            <mxPoint x="260.02857142857147" y="40" as="targetPoint" />
          </mxGeometry>
        </mxCell>
        <mxCell id="p5L9RwOuj42B9GvSqFFH-126" value="Office" style="rounded=0;whiteSpace=wrap;html=1;strokeColor=none;strokeWidth=1;fillColor=none;gradientColor=none;fontFamily=Tahoma;fontSize=12;fontColor=#000000;" parent="1" vertex="1">
          <mxGeometry x="240" y="80" width="40" height="20" as="geometry" />
        </mxCell>
        <mxCell id="p5L9RwOuj42B9GvSqFFH-135" value="" style="endArrow=blockThin;html=1;strokeColor=#000000;strokeWidth=1;fillColor=#D1D1D1;fontFamily=Tahoma;fontSize=12;fontColor=#000000;endFill=1;entryX=0;entryY=0.5;entryDx=0;entryDy=0;" parent="1" source="p5L9RwOuj42B9GvSqFFH-123" target="p5L9RwOuj42B9GvSqFFH-125" edge="1">
          <mxGeometry width="50" height="50" relative="1" as="geometry">
            <mxPoint x="175" y="90" as="sourcePoint" />
            <mxPoint x="250" y="40" as="targetPoint" />
          </mxGeometry>
        </mxCell>
        <mxCell id="p5L9RwOuj42B9GvSqFFH-136" value="" style="endArrow=blockThin;html=1;strokeColor=#000000;strokeWidth=1;fillColor=#D1D1D1;fontFamily=Tahoma;fontSize=12;fontColor=#000000;endFill=1;entryX=0;entryY=0.5;entryDx=0;entryDy=0;" parent="1" source="p5L9RwOuj42B9GvSqFFH-123" target="p5L9RwOuj42B9GvSqFFH-126" edge="1">
          <mxGeometry width="50" height="50" relative="1" as="geometry">
            <mxPoint x="185" y="100" as="sourcePoint" />
            <mxPoint x="260" y="50" as="targetPoint" />
          </mxGeometry>
        </mxCell>
        <mxCell id="p5L9RwOuj42B9GvSqFFH-137" value="" style="endArrow=blockThin;html=1;strokeColor=#000000;strokeWidth=1;fillColor=#D1D1D1;fontFamily=Tahoma;fontSize=12;fontColor=#000000;endFill=1;entryX=0;entryY=0.5;entryDx=0;entryDy=0;" parent="1" source="p5L9RwOuj42B9GvSqFFH-123" target="p5L9RwOuj42B9GvSqFFH-127" edge="1">
          <mxGeometry width="50" height="50" relative="1" as="geometry">
            <mxPoint x="195" y="110" as="sourcePoint" />
            <mxPoint x="270" y="60" as="targetPoint" />
          </mxGeometry>
        </mxCell>
        <mxCell id="p5L9RwOuj42B9GvSqFFH-138" value="" style="endArrow=blockThin;html=1;strokeColor=#000000;strokeWidth=1;fillColor=#D1D1D1;fontFamily=Tahoma;fontSize=12;fontColor=#000000;endFill=1;entryX=0;entryY=0.5;entryDx=0;entryDy=0;" parent="1" source="p5L9RwOuj42B9GvSqFFH-123" target="p5L9RwOuj42B9GvSqFFH-128" edge="1">
          <mxGeometry width="50" height="50" relative="1" as="geometry">
            <mxPoint x="205" y="120" as="sourcePoint" />
            <mxPoint x="280" y="70" as="targetPoint" />
          </mxGeometry>
        </mxCell>
        <mxCell id="p5L9RwOuj42B9GvSqFFH-141" value="" style="shape=curlyBracket;whiteSpace=wrap;html=1;rounded=1;strokeColor=#000000;strokeWidth=1;fillColor=none;gradientColor=none;fontFamily=Tahoma;fontSize=100;fontColor=#000000;direction=west;" parent="1" vertex="1">
          <mxGeometry x="317.5" y="20" width="25" height="140" as="geometry" />
        </mxCell>
        <mxCell id="p5L9RwOuj42B9GvSqFFH-142" value="On" style="rounded=0;whiteSpace=wrap;html=1;strokeColor=none;strokeWidth=1;fillColor=none;gradientColor=none;fontFamily=Tahoma;fontSize=12;fontColor=#000000;" parent="1" vertex="1">
          <mxGeometry x="360" y="65" width="40" height="20" as="geometry" />
        </mxCell>
        <mxCell id="p5L9RwOuj42B9GvSqFFH-143" value="Off" style="rounded=0;whiteSpace=wrap;html=1;strokeColor=none;strokeWidth=1;fillColor=none;gradientColor=none;fontFamily=Tahoma;fontSize=12;fontColor=#000000;" parent="1" vertex="1">
          <mxGeometry x="360" y="95" width="40" height="20" as="geometry" />
        </mxCell>
        <mxCell id="p5L9RwOuj42B9GvSqFFH-144" value="" style="endArrow=blockThin;html=1;strokeColor=#000000;strokeWidth=1;fillColor=#D1D1D1;fontFamily=Tahoma;fontSize=12;fontColor=#000000;endFill=1;entryX=0;entryY=0.5;entryDx=0;entryDy=0;exitX=0.1;exitY=0.5;exitDx=0;exitDy=0;exitPerimeter=0;" parent="1" source="p5L9RwOuj42B9GvSqFFH-141" target="p5L9RwOuj42B9GvSqFFH-142" edge="1">
          <mxGeometry width="50" height="50" relative="1" as="geometry">
            <mxPoint x="175" y="90" as="sourcePoint" />
            <mxPoint x="250" y="40" as="targetPoint" />
          </mxGeometry>
        </mxCell>
        <mxCell id="p5L9RwOuj42B9GvSqFFH-145" value="" style="endArrow=blockThin;html=1;strokeColor=#000000;strokeWidth=1;fillColor=#D1D1D1;fontFamily=Tahoma;fontSize=12;fontColor=#000000;endFill=1;entryX=0;entryY=0.5;entryDx=0;entryDy=0;exitX=0.1;exitY=0.5;exitDx=0;exitDy=0;exitPerimeter=0;" parent="1" source="p5L9RwOuj42B9GvSqFFH-141" target="p5L9RwOuj42B9GvSqFFH-143" edge="1">
          <mxGeometry width="50" height="50" relative="1" as="geometry">
            <mxPoint x="350" y="100" as="sourcePoint" />
            <mxPoint x="370" y="85" as="targetPoint" />
          </mxGeometry>
        </mxCell>
      </root>
    </mxGraphModel>
  </diagram>
</mxfile>
